<svg width="62" height="65" viewBox="0 0 62 65" fill="none" xmlns="http://www.w3.org/2000/svg">
<path d="M6.22381 64.9187C5.89719 64.1468 5.69731 63.3749 5.53319 62.6031C5.37556 61.8312 5.26669 61.0593 5.20007 60.2874C5.13182 59.5155 5.13832 58.7437 5.21144 57.9718C5.28457 57.1999 5.38206 56.4281 5.42756 55.6562L5.58194 53.3406L5.76882 51.0249C5.90857 49.4812 6.04344 47.9374 6.22381 46.3937H6.45132C6.63169 47.9374 6.76657 49.4812 6.90632 51.0249L7.09319 53.3406L7.24757 55.6562C7.29307 56.4281 7.39056 57.1999 7.46369 57.9718C7.53681 58.7437 7.54332 59.5155 7.47507 60.2874C7.40844 61.0593 7.29957 61.8312 7.14194 62.6031C6.97944 63.3749 6.77794 64.1468 6.45132 64.9187H6.22381Z" fill="#0060AF"/>
<path d="M46.8163 44.2812C46.7253 43.5776 46.6115 42.8724 46.475 42.1687C46.3385 41.4765 46.2053 40.3146 46.0298 39.6061C46.2053 37.3587 46.3385 35.1114 46.475 32.8656L46.6635 29.432L46.8163 26C46.865 24.856 46.956 23.712 47.0324 22.5664C47.1055 21.4224 47.112 20.2784 47.0438 19.1328C46.9772 17.9888 46.8683 16.8448 46.7107 15.6991C46.5482 14.5551 46.3467 13.4111 46.02 12.2655H45.7925C45.4659 13.4095 45.266 14.5535 45.1019 15.6991C44.9443 16.8431 44.8354 17.9871 44.7688 19.1328C44.7005 20.2767 44.707 21.4207 44.7802 22.5664C44.8565 23.7104 44.9475 24.8544 44.9963 26L45.149 29.4336L45.3375 32.8672C45.474 35.1146 45.6089 37.362 45.7828 39.6077C45.6073 40.3162 45.474 41.4781 45.3375 42.1704C45.201 42.874 45.0873 43.5792 44.9963 44.2829C44.9508 44.6355 44.8533 44.9865 44.7802 45.3391C44.707 45.6917 44.7005 46.0427 44.7688 46.3954C44.8354 46.748 44.9443 47.099 45.1019 47.4516C45.2644 47.8042 45.4659 48.1552 45.7925 48.5079H46.02C46.3467 48.1552 46.5465 47.8042 46.7107 47.4516C46.8683 47.099 46.9788 46.748 47.0438 46.3954C47.112 46.0427 47.1055 45.6917 47.0324 45.3391C46.9593 44.9849 46.8618 44.6339 46.8163 44.2812Z" fill="url(#paint0_linear)"/>
<path d="M50.895 23.3187C51.0754 24.2255 51.2103 25.1338 51.35 26.0406C51.4865 26.9473 51.6003 27.8557 51.6913 28.7625C51.7368 29.2158 51.8343 29.6692 51.9074 30.1242C51.9805 30.5776 51.987 31.031 51.9188 31.486C51.8522 31.9393 51.7433 32.3927 51.5857 32.8477C51.4232 33.3011 51.2217 33.7545 50.895 34.2095H50.6675C50.3409 33.7561 50.141 33.3027 49.9769 32.8477C49.8193 32.3943 49.7104 31.941 49.6438 31.486C49.5755 31.0326 49.582 30.5792 49.6552 30.1242C49.7283 29.6708 49.8258 29.2175 49.8713 28.7625C49.9623 27.8557 50.076 26.9473 50.2125 26.0406C50.3523 25.1338 50.4872 24.2255 50.6675 23.3187H50.895Z" fill="url(#paint1_linear)"/>
<path d="M1.10504 44.8499C0.924665 42.2906 0.789792 39.7312 0.650042 37.1718L0.463168 33.3319L0.308791 29.4921C0.260041 28.2116 0.169043 26.9327 0.0926678 25.6522C0.0195428 24.3717 0.0130417 23.0928 0.0812917 21.8123C0.147917 20.5318 0.25679 19.2529 0.414415 17.9724C0.576915 16.6919 0.778415 15.4131 1.10504 14.1326H1.33254C1.65917 15.4131 1.85904 16.6919 2.02317 17.9724C2.18079 19.2529 2.28967 20.5318 2.35629 21.8123C2.42454 23.0928 2.41804 24.3717 2.34492 25.6522C2.26854 26.9327 2.17754 28.2116 2.12879 29.4921L1.97442 33.3319L1.78754 37.1718C1.64779 39.7312 1.51292 42.2906 1.33254 44.8499H1.10504Z" fill="url(#paint2_linear)"/>
<path d="M6.45132 5.6062C6.77794 7.09633 6.97782 8.58483 7.14194 10.075C7.29957 11.5651 7.40844 13.0536 7.47507 14.5437C7.54332 16.0338 7.53681 17.5223 7.46369 19.0125C7.38731 20.5026 7.29632 21.9911 7.24757 23.4812L7.09319 27.95L6.90632 32.4187C6.76657 35.3973 6.63169 38.3776 6.45132 41.3562H6.22381C6.04344 38.3776 5.90857 35.3973 5.76882 32.4187L5.58194 27.95L5.42756 23.4812C5.37881 21.9911 5.28782 20.5026 5.21144 19.0125C5.13832 17.5223 5.13182 16.0338 5.20007 14.5437C5.26669 13.0536 5.37556 11.5651 5.53319 10.075C5.69569 8.58483 5.89719 7.09633 6.22381 5.6062H6.45132Z" fill="url(#paint3_linear)"/>
<path d="M12.9351 51.5125L12.7807 48.1601L12.5922 44.8077C12.4524 42.5733 12.3176 40.339 12.1372 38.1046H12.0852C12.2639 35.2478 12.4069 32.3911 12.5516 29.536L12.7596 25.0071L12.9334 20.4782C12.9887 18.9686 13.0862 17.459 13.1691 15.9493C13.2487 14.4397 13.2617 12.9301 13.2016 11.4205C13.1414 9.91083 13.0391 8.39958 12.8879 6.88995C12.7319 5.3787 12.5369 3.86908 12.2184 2.35783L11.9909 2.3562C11.6578 3.8642 11.4498 5.37383 11.2808 6.88345C11.1167 8.39308 10.9997 9.9027 10.9266 11.4123C10.8518 12.922 10.8518 14.4316 10.9184 15.9428C10.9883 17.4525 11.0728 18.9637 11.1151 20.4733L11.2483 25.0038L11.4157 29.5343C11.5408 32.5552 11.6643 35.5745 11.8301 38.5953H11.8739C11.7131 40.6672 11.5847 42.7391 11.4563 44.811L11.2694 48.1633L11.1151 51.5125C11.0663 52.6305 10.9753 53.7468 10.8989 54.8648C10.8258 55.9828 10.8193 57.0992 10.8876 58.2172C10.9542 59.3336 11.0631 60.4516 11.2207 61.568C11.3832 62.686 11.5847 63.8023 11.9113 64.9203H12.1388C12.4654 63.8023 12.6653 62.686 12.8294 61.568C12.9871 60.45 13.0959 59.3336 13.1626 58.2172C13.2308 57.0992 13.2243 55.9828 13.1512 54.8648C13.0748 53.7468 12.9838 52.6288 12.9351 51.5125Z" fill="url(#paint4_linear)"/>
<path d="M18.6226 49.5625L18.4682 45.7632L18.2797 41.964C18.1464 39.5346 18.0148 37.1036 17.8458 34.6742C18.0148 31.9589 18.1464 29.2419 18.2797 26.5265L18.4682 22.2804L18.6226 18.0375C18.6713 16.6221 18.7623 15.2067 18.8387 13.7914C18.9118 12.376 18.9183 10.9606 18.8501 9.54523C18.7834 8.12985 18.6746 6.71448 18.5169 5.2991C18.3544 3.88373 18.1529 2.46835 17.8263 1.05298H17.5988C17.2722 2.46835 17.0723 3.88373 16.9082 5.2991C16.7506 6.71448 16.6417 8.12985 16.5751 9.54523C16.5068 10.9606 16.5133 12.376 16.5864 13.7914C16.6628 15.2067 16.7538 16.6221 16.8026 18.0375L16.9569 22.2836L17.1438 26.5297C17.2771 29.2451 17.4087 31.9621 17.5777 34.6775C17.4087 37.1069 17.2771 39.5379 17.1438 41.9672L16.9569 45.7665L16.8026 49.5625C16.7538 50.8284 16.6628 52.0942 16.5864 53.3617C16.5133 54.6276 16.5068 55.8935 16.5751 57.161C16.6417 58.4269 16.7506 59.6927 16.9082 60.9586C17.0707 62.2245 17.2722 63.4904 17.5988 64.7579H17.8263C18.1529 63.492 18.3528 62.2261 18.5169 60.9586C18.6746 59.6927 18.7834 58.4269 18.8501 57.161C18.9183 55.8951 18.9118 54.6292 18.8387 53.3617C18.7623 52.0942 18.6713 50.8284 18.6226 49.5625Z" fill="url(#paint5_linear)"/>
<path d="M23.9525 20.2995L24.1459 16.2581C24.2077 14.911 24.3117 13.5655 24.4027 12.2183C24.4888 10.8712 24.5083 9.52409 24.4547 8.17696C24.401 6.82821 24.3068 5.48109 24.1622 4.13071C24.0127 2.78196 23.8258 1.43159 23.5122 0.081214L23.2847 0.0795898C22.945 1.42346 22.7305 2.76896 22.5534 4.11446C22.3812 5.45996 22.2593 6.80709 22.1797 8.15259C22.0984 9.49971 22.0903 10.8468 22.1504 12.1956C22.2138 13.5443 22.2902 14.8915 22.3259 16.2402L22.4397 20.2832L22.5859 24.3278C22.6883 26.793 22.7907 29.2565 22.9223 31.7216C22.7614 34.3102 22.633 36.8988 22.5047 39.4858L22.3178 43.6702L22.1634 47.8546C22.1147 49.2488 22.0237 50.6447 21.9473 52.039C21.8742 53.4332 21.8677 54.8291 21.9359 56.2233C22.0025 57.6176 22.1114 59.0135 22.269 60.4077C22.4315 61.802 22.633 63.1978 22.9597 64.5921H23.1872C23.5138 63.1978 23.7137 61.802 23.8778 60.4077C24.0354 59.0135 24.1443 57.6176 24.2109 56.2233C24.2792 54.8291 24.2727 53.4332 24.1995 52.039C24.1232 50.6447 24.0322 49.2488 23.9834 47.8546L23.829 43.6702L23.6438 39.4875C23.5154 36.9346 23.3903 34.3817 23.2327 31.8288C23.4179 29.3328 23.5707 26.8368 23.725 24.3408L23.9525 20.2995Z" fill="url(#paint6_linear)"/>
<path d="M29.6612 18.2243L29.835 14.7923C29.8903 13.6483 29.9878 12.5043 30.0707 11.3603C30.1503 10.2163 30.1633 9.07231 30.1032 7.92831C30.043 6.78431 29.9407 5.63869 29.7895 4.49306C29.6335 3.34744 29.4385 2.20181 29.12 1.05619L28.8925 1.05457C28.5594 2.19694 28.3514 3.33931 28.1824 4.48331C28.0183 5.62731 27.9013 6.76969 27.8282 7.91369C27.7534 9.05769 27.7534 10.2017 27.82 11.3473C27.8899 12.4913 27.9744 13.6369 28.015 14.7809L28.1483 18.2146L28.3157 21.6482C28.4294 23.7119 28.5415 25.7741 28.6829 27.8378C28.5269 30.1762 28.4018 32.5162 28.2734 34.8546L28.0849 38.7139L27.9338 42.5749C27.885 43.8619 27.794 45.1473 27.7177 46.4343C27.6445 47.7213 27.638 49.0067 27.7063 50.2937C27.7729 51.5807 27.8818 52.8661 28.0394 54.1531C28.2019 55.4401 28.4034 56.7254 28.73 58.0124H28.9575C29.2842 56.7254 29.484 55.4401 29.6482 54.1531C29.8058 52.8661 29.9147 51.5807 29.9813 50.2937C30.0495 49.0067 30.043 47.7213 29.9699 46.4343C29.8935 45.1473 29.8025 43.8619 29.7538 42.5749L29.601 38.7156L29.4125 34.8562C29.2874 32.5357 29.1623 30.2152 29.0079 27.8947C29.1769 25.8147 29.315 23.7347 29.4532 21.6563L29.6612 18.2243Z" fill="url(#paint7_linear)"/>
<path d="M35.36 39.8937L35.2073 36.1968L35.0188 32.5C34.8791 30.0348 34.7442 27.5713 34.5638 25.1062H34.5443C34.7084 23.374 34.8433 21.6417 34.9782 19.9094L35.1862 16.9861L35.36 14.0627C35.412 13.0877 35.5177 12.1143 35.5957 11.1393C35.6753 10.1643 35.6883 9.18933 35.6282 8.21433C35.568 7.23933 35.4657 6.2627 35.3146 5.2877C35.1586 4.31107 34.9636 3.33445 34.6451 2.35783L34.4175 2.3562C34.0844 3.32958 33.8764 4.30295 33.7074 5.27633C33.5433 6.2497 33.4263 7.2247 33.3532 8.1997C33.2784 9.1747 33.2784 10.1497 33.3451 11.1247C33.4117 12.0997 33.5027 13.0763 33.5401 14.0513L33.6733 16.978L33.8407 19.9046C33.9658 21.8562 34.0893 23.8062 34.255 25.7578H34.2908C34.1332 28.0052 34.0081 30.2542 33.8813 32.5016L33.6928 36.1985L33.5401 39.8953C33.4913 41.1271 33.4003 42.3605 33.3239 43.5922C33.2508 44.824 33.2443 46.0573 33.3126 47.2891C33.3792 48.5208 33.4881 49.7542 33.6457 50.986C33.8082 52.2177 34.0097 53.4511 34.3363 54.6828H34.5638C34.8904 53.4511 35.0903 52.2177 35.2544 50.986C35.4121 49.7542 35.5209 48.5208 35.5875 47.2891C35.6558 46.0573 35.6493 44.824 35.5762 43.5922C35.4998 42.3588 35.4088 41.1255 35.36 39.8937Z" fill="url(#paint8_linear)"/>
<path d="M40.7225 44.0375L40.5698 42.1476L40.3813 40.2578C40.248 39.0488 40.1164 37.8398 39.9474 36.6324C40.0937 34.4695 40.2172 32.3083 40.3407 30.1454L40.5487 26.1658L40.7225 22.1845C40.7778 20.8569 40.8753 19.5309 40.9598 18.2049C41.0394 16.8789 41.0524 15.5513 40.9923 14.2236C40.9322 12.896 40.8298 11.5684 40.6787 10.2408C40.5227 8.91314 40.3277 7.58551 40.0092 6.25626L39.7817 6.25464C39.4485 7.58064 39.2405 8.90664 39.0715 10.2326C38.9074 11.5586 38.7904 12.8846 38.7173 14.2123C38.6425 15.5383 38.6425 16.8659 38.7092 18.1935C38.779 19.5211 38.8635 20.8488 38.9058 22.1764L39.039 26.1576L39.2064 30.1405C39.3218 32.5585 39.4339 34.9765 39.5785 37.3945C39.4567 38.35 39.3527 39.3039 39.247 40.2594L39.0585 42.1493L38.9025 44.0375C38.857 44.668 38.7595 45.2969 38.6864 45.9274C38.6133 46.5579 38.6068 47.1868 38.675 47.8173C38.7417 48.4478 38.8505 49.0766 39.0082 49.7071C39.1707 50.3376 39.3722 50.9665 39.6988 51.597H39.9263C40.2529 50.9665 40.4528 50.3376 40.6169 49.7071C40.7745 49.0766 40.8834 48.4478 40.95 47.8173C41.0183 47.1868 41.0118 46.5579 40.9387 45.9274C40.8655 45.2969 40.768 44.6664 40.7225 44.0375Z" fill="url(#paint9_linear)"/>
<path d="M45.9713 37.037C44.7151 37.037 43.6963 38.0558 43.6963 39.312C43.6963 39.5411 43.7304 39.7637 43.7938 39.9717C42.5604 40.6542 41.3286 41.3367 40.0985 42.0257L37.5928 36.5885L34.8676 30.7206C34.8059 30.589 34.6921 30.4817 34.5443 30.4313C34.2566 30.3338 33.943 30.4882 33.8455 30.7758L33.8423 30.784C33.3255 32.3098 32.8201 33.8373 32.3164 35.3665L30.8003 39.9522C30.2916 41.4797 29.8074 43.0153 29.3085 44.5461L28.2766 47.7473L24.3133 38.6295C24.7341 38.2963 25.0039 37.7812 25.0039 37.2027C25.0039 36.1985 24.1898 35.3827 23.1839 35.3827C22.178 35.3827 21.3639 36.1968 21.3639 37.2027C21.3639 37.8413 21.6938 38.402 22.1926 38.727L17.5484 54.392L12.2314 42.8447L12.2298 42.8415C12.2249 42.8301 12.2184 42.8203 12.2135 42.809C12.1225 42.6578 11.9259 42.6107 11.7748 42.7017L7.09801 45.539C6.84776 45.2465 6.47564 45.0596 6.05964 45.0596C5.30564 45.0596 4.69464 45.6706 4.69464 46.4246C4.69464 47.1786 5.30564 47.7896 6.05964 47.7896C6.81364 47.7896 7.42464 47.1786 7.42464 46.4246C7.42464 46.2978 7.40676 46.176 7.37426 46.059L11.7943 43.4362L17.2738 55.6497C17.3176 55.7472 17.4038 55.8268 17.5143 55.861C17.719 55.9227 17.9351 55.809 17.9969 55.6042L17.9985 55.601L23.062 39.0146C23.1026 39.0178 23.1433 39.0211 23.1839 39.0211C23.2684 39.0211 23.3513 39.013 23.4325 39.0016L27.8411 49.5316C27.9013 49.673 28.0199 49.79 28.1775 49.8436C28.4668 49.9395 28.7804 49.7835 28.8779 49.4926L28.8795 49.4861L30.4038 44.902C30.9075 43.3728 31.4243 41.847 31.9183 40.3146L33.4084 35.7191C33.7643 34.6271 34.1169 33.5335 34.4663 32.4398L36.6633 37.0175L39.4794 42.8415L39.4826 42.8496C39.4875 42.8593 39.4924 42.8691 39.4989 42.8788C39.624 43.0933 39.8986 43.1665 40.1115 43.0413C41.4619 42.2565 42.8058 41.4635 44.1496 40.6705C44.564 41.2213 45.2221 41.5788 45.9648 41.5788C47.2209 41.5788 48.2398 40.56 48.2398 39.3038C48.2463 38.0542 47.2274 37.037 45.9713 37.037Z" fill="#EF9F00"/>
<path d="M50.8625 42.0874C50.5229 41.5999 50.3539 41.1124 50.2256 40.6249C50.1021 40.1374 50.0517 39.6499 50.05 39.1624C50.05 38.6749 50.1004 38.1874 50.2239 37.6999C50.3507 37.2124 50.5213 36.7249 50.8625 36.2374C51.2038 36.7249 51.3744 37.2124 51.5012 37.6999C51.623 38.1874 51.675 38.6749 51.675 39.1624C51.6734 39.6499 51.6214 40.1374 51.4995 40.6249C51.3712 41.1124 51.2022 41.5999 50.8625 42.0874Z" fill="#F2A100"/>
<path d="M55.4125 44.85C55.0729 43.9026 54.9039 42.9536 54.7755 42.0062C54.6569 41.0589 54.6016 40.1099 54.6 39.1625C54.5984 38.2151 54.6536 37.2661 54.7739 36.3187C54.9006 35.3714 55.0713 34.4224 55.4125 33.475C55.7538 34.4224 55.9244 35.3714 56.0511 36.3187C56.1698 37.2661 56.225 38.2151 56.225 39.1625C56.2234 40.1099 56.1681 41.0589 56.0495 42.0062C55.9211 42.9536 55.7521 43.9026 55.4125 44.85Z" fill="#F2A100"/>
<path d="M60.125 47.6124C59.7854 46.2035 59.6164 44.7963 59.488 43.3874C59.3694 41.9785 59.3142 40.5713 59.3125 39.1624C59.3109 37.7535 59.3662 36.3463 59.4864 34.9374C59.6132 33.5285 59.7838 32.1213 60.125 30.7124C60.4663 32.1213 60.6369 33.5285 60.7637 34.9374C60.8823 36.3463 60.9375 37.7535 60.9375 39.1624C60.9359 40.5713 60.8807 41.9785 60.762 43.3874C60.6337 44.7963 60.4647 46.2035 60.125 47.6124Z" fill="#F2A100"/>
<defs>
<linearGradient id="paint0_linear" x1="45.9063" y1="12.2687" x2="45.9063" y2="48.5062" gradientUnits="userSpaceOnUse">
<stop offset="0.4569" stop-color="#0080FF"/>
<stop offset="0.489" stop-color="#0078EA"/>
<stop offset="0.5339" stop-color="#006FD4"/>
<stop offset="0.5869" stop-color="#0068C3"/>
<stop offset="0.6525" stop-color="#0063B8"/>
<stop offset="0.7445" stop-color="#0061B1"/>
<stop offset="1" stop-color="#0060AF"/>
</linearGradient>
<linearGradient id="paint1_linear" x1="53.1769" y1="24.6361" x2="48.4056" y2="32.9003" gradientUnits="userSpaceOnUse">
<stop offset="0.6421" stop-color="#0080FF"/>
<stop offset="0.7214" stop-color="#007EFB"/>
<stop offset="0.8087" stop-color="#0079ED"/>
<stop offset="0.8993" stop-color="#0070D7"/>
<stop offset="0.967" stop-color="#0067C2"/>
</linearGradient>
<linearGradient id="paint2_linear" x1="-5.45909" y1="17.9272" x2="7.89669" y2="41.0601" gradientUnits="userSpaceOnUse">
<stop offset="0.3706" stop-color="#0080FF"/>
<stop offset="0.4078" stop-color="#0078EA"/>
<stop offset="0.4598" stop-color="#006FD4"/>
<stop offset="0.5213" stop-color="#0068C3"/>
<stop offset="0.5973" stop-color="#0063B8"/>
<stop offset="0.7039" stop-color="#0061B1"/>
<stop offset="1" stop-color="#0060AF"/>
</linearGradient>
<linearGradient id="paint3_linear" x1="-1.43097" y1="10.0257" x2="14.1061" y2="36.9367" gradientUnits="userSpaceOnUse">
<stop offset="0.4112" stop-color="#0080FF"/>
<stop offset="0.446" stop-color="#0078EA"/>
<stop offset="0.4947" stop-color="#006FD4"/>
<stop offset="0.5522" stop-color="#0068C3"/>
<stop offset="0.6233" stop-color="#0063B8"/>
<stop offset="0.723" stop-color="#0061B1"/>
<stop offset="1" stop-color="#0060AF"/>
</linearGradient>
<linearGradient id="paint4_linear" x1="-1.49812" y1="10.1445" x2="25.629" y2="57.1301" gradientUnits="userSpaceOnUse">
<stop offset="0.2132" stop-color="#0080FF"/>
<stop offset="0.2597" stop-color="#0078EA"/>
<stop offset="0.3248" stop-color="#006FD4"/>
<stop offset="0.4016" stop-color="#0068C3"/>
<stop offset="0.4966" stop-color="#0063B8"/>
<stop offset="0.6299" stop-color="#0061B1"/>
<stop offset="1" stop-color="#0060AF"/>
</linearGradient>
<linearGradient id="paint5_linear" x1="3.89268" y1="8.96948" x2="31.5325" y2="56.843" gradientUnits="userSpaceOnUse">
<stop offset="0.1726" stop-color="#0080FF"/>
<stop offset="0.2215" stop-color="#0078EA"/>
<stop offset="0.2899" stop-color="#006FD4"/>
<stop offset="0.3707" stop-color="#0068C3"/>
<stop offset="0.4706" stop-color="#0063B8"/>
<stop offset="0.6108" stop-color="#0061B1"/>
<stop offset="1" stop-color="#0060AF"/>
</linearGradient>
<linearGradient id="paint6_linear" x1="9.28159" y1="8.16567" x2="37.1924" y2="56.5087" gradientUnits="userSpaceOnUse">
<stop offset="0.1523" stop-color="#0080FF"/>
<stop offset="0.2024" stop-color="#0078EA"/>
<stop offset="0.2725" stop-color="#006FD4"/>
<stop offset="0.3553" stop-color="#0068C3"/>
<stop offset="0.4576" stop-color="#0063B8"/>
<stop offset="0.6013" stop-color="#0061B1"/>
<stop offset="1" stop-color="#0060AF"/>
</linearGradient>
<linearGradient id="paint7_linear" x1="16.5851" y1="8.16123" x2="41.2644" y2="50.9071" gradientUnits="userSpaceOnUse">
<stop offset="0.2234" stop-color="#0080FF"/>
<stop offset="0.2693" stop-color="#0078EA"/>
<stop offset="0.3335" stop-color="#006FD4"/>
<stop offset="0.4093" stop-color="#0068C3"/>
<stop offset="0.5031" stop-color="#0063B8"/>
<stop offset="0.6347" stop-color="#0061B1"/>
<stop offset="1" stop-color="#0060AF"/>
</linearGradient>
<linearGradient id="paint8_linear" x1="23.1432" y1="8.86465" x2="45.8375" y2="48.1723" gradientUnits="userSpaceOnUse">
<stop offset="0.3096" stop-color="#0080FF"/>
<stop offset="0.3505" stop-color="#0078EA"/>
<stop offset="0.4075" stop-color="#006FD4"/>
<stop offset="0.475" stop-color="#0068C3"/>
<stop offset="0.5583" stop-color="#0063B8"/>
<stop offset="0.6753" stop-color="#0061B1"/>
<stop offset="1" stop-color="#0060AF"/>
</linearGradient>
<linearGradient id="paint9_linear" x1="30.0186" y1="11.8914" x2="49.6872" y2="45.9583" gradientUnits="userSpaceOnUse">
<stop offset="0.3401" stop-color="#0080FF"/>
<stop offset="0.3791" stop-color="#0078EA"/>
<stop offset="0.4337" stop-color="#006FD4"/>
<stop offset="0.4981" stop-color="#0068C3"/>
<stop offset="0.5778" stop-color="#0063B8"/>
<stop offset="0.6896" stop-color="#0061B1"/>
<stop offset="1" stop-color="#0060AF"/>
</linearGradient>
</defs>
</svg>
