<svg width="89" height="40" viewBox="0 0 89 40" fill="none" xmlns="http://www.w3.org/2000/svg">
<path d="M64.8426 10.4112C64.2846 10.4107 63.7343 10.5409 63.2357 10.7915C62.7372 11.042 62.3043 11.4059 61.9718 11.8539C61.6392 12.302 61.4163 12.8217 61.3209 13.3715C61.2254 13.9212 61.2601 14.4856 61.4222 15.0196C59.4867 16.0909 57.5525 17.1656 55.6197 18.2436L51.6852 9.70785L47.4057 0.499127C47.3327 0.342734 47.2145 0.211759 47.0665 0.123041C46.9184 0.0343229 46.7472 -0.00808476 46.5748 0.0012727C46.4025 0.0106302 46.2369 0.0713234 46.0993 0.17555C45.9617 0.279777 45.8584 0.422773 45.8028 0.586153V0.600322C44.9932 2.99459 44.1948 5.3929 43.4075 7.79526L41.0274 14.9963C40.229 17.3916 39.4629 19.802 38.6847 22.2105L37.0656 27.2368L30.8432 12.9177C31.3174 12.5427 31.6605 12.0268 31.8229 11.4443C31.9853 10.8619 31.9587 10.2429 31.747 9.67654C31.5352 9.11016 31.1492 8.62558 30.6445 8.29256C30.1398 7.95954 29.5424 7.79526 28.9384 7.82336C28.3344 7.85145 27.7549 8.07049 27.2833 8.44892C26.8117 8.82736 26.4723 9.34568 26.314 9.92927C26.1558 10.5129 26.1868 11.1316 26.4025 11.6965C26.6183 12.2613 27.0078 12.7432 27.5149 13.0726L20.2288 37.6629L11.8762 19.5369V19.5318C11.8685 19.5148 11.8597 19.4982 11.8499 19.4822C11.7802 19.3693 11.6688 19.2883 11.5399 19.2567C11.411 19.2251 11.2749 19.2454 11.1608 19.3132L3.81809 23.7658C3.4729 23.3583 2.98928 23.0926 2.46014 23.02C1.93101 22.9473 1.39369 23.0728 0.951431 23.3722C0.509172 23.6717 0.193168 24.124 0.0641428 24.6423C-0.064882 25.1606 0.00217164 25.7082 0.252419 26.1801C0.502667 26.6519 0.918458 27.0146 1.4199 27.1986C1.92133 27.3825 2.47305 27.3746 2.96903 27.1764C3.46501 26.9783 3.87026 26.6038 4.10693 26.125C4.3436 25.6462 4.39497 25.0968 4.2512 24.5825L11.1911 20.4648L19.7927 39.6402C19.8431 39.7532 19.9269 39.8481 20.0327 39.9122C20.1386 39.9763 20.2615 40.0065 20.385 39.9988C20.5085 39.9911 20.6267 39.9459 20.7237 39.8691C20.8208 39.7924 20.8921 39.6878 20.9281 39.5694V39.5633L28.879 13.5239C28.9417 13.5239 29.0055 13.533 29.0692 13.533C29.2003 13.532 29.3311 13.5222 29.4608 13.5037L36.3836 30.0348C36.4517 30.198 36.568 30.3365 36.717 30.4318C36.866 30.5271 37.0405 30.5746 37.2172 30.568C37.3939 30.5614 37.5644 30.501 37.7059 30.3948C37.8473 30.2887 37.953 30.1419 38.0088 29.9741V29.964L40.403 22.768C41.1944 20.3667 42.0049 17.9724 42.7811 15.567L45.1298 8.35487C45.6871 6.63929 46.2413 4.92302 46.7925 3.20609L50.2422 10.3909L54.6634 19.5359L54.6695 19.548C54.6768 19.5636 54.6849 19.5788 54.6937 19.5936C54.7884 19.7541 54.9424 19.8709 55.1226 19.9186C55.3027 19.9664 55.4944 19.9412 55.6561 19.8486C57.7751 18.6174 59.8887 17.3764 61.997 16.1256C62.3628 16.6114 62.8468 16.9956 63.4028 17.2418C63.9589 17.488 64.5686 17.5881 65.1742 17.5325C65.7798 17.4769 66.3611 17.2674 66.863 16.9241C67.3649 16.5807 67.7708 16.1148 68.0421 15.5706C68.3134 15.0263 68.4412 14.4218 68.4132 13.8143C68.3853 13.2068 68.2026 12.6165 67.8825 12.0995C67.5624 11.5824 67.1155 11.1558 66.5841 10.8599C66.0528 10.5641 65.4547 10.4089 64.8466 10.4091L64.8426 10.4112Z" fill="#F0A003"/>
<path d="M72.5222 18.3418C71.9889 17.5768 71.7218 16.8117 71.5224 16.0457C71.3369 15.2945 71.2441 14.5233 71.2461 13.7496C71.2417 12.9759 71.3331 12.2047 71.5183 11.4535C71.7207 10.6884 71.9859 9.92238 72.5222 9.15735C73.0575 9.92238 73.3257 10.6884 73.525 11.4535C73.7102 12.2047 73.8017 12.9759 73.7973 13.7496C73.7993 14.5233 73.7065 15.2945 73.521 16.0457C73.3216 16.8117 73.0595 17.5768 72.5222 18.3418Z" fill="#F3A201"/>
<path d="M79.6655 22.6789C79.1322 21.1913 78.8661 19.7028 78.6657 18.2142C78.4813 16.7331 78.3894 15.242 78.3905 13.7495C78.3869 12.257 78.4778 10.7658 78.6627 9.28478C78.8651 7.7962 79.1292 6.30864 79.6655 4.82007C80.2019 6.30864 80.469 7.7962 80.6684 9.28478C80.8533 10.7658 80.9442 12.257 80.9406 13.7495C80.9417 15.242 80.8498 16.7331 80.6653 18.2142C80.465 19.7028 80.1988 21.1913 79.6655 22.6789Z" fill="#F3A201"/>
<path d="M87.0639 27.0162C86.5316 24.8051 86.2645 22.594 86.0651 20.3829C85.8658 18.1718 85.7909 15.9606 85.7889 13.7495C85.7868 11.5384 85.8749 9.32733 86.0611 7.11623C86.2473 4.90512 86.5286 2.69402 87.0639 0.48291C87.6002 2.69402 87.8684 4.90512 88.0678 7.11623C88.2671 9.32733 88.342 11.5384 88.34 13.7495C88.3379 15.9606 88.2509 18.1718 88.0637 20.3829C87.8765 22.594 87.5972 24.8051 87.0639 27.0162Z" fill="#F3A201"/>
</svg>
