<svg width="75" height="75" viewBox="0 0 75 75" fill="none" xmlns="http://www.w3.org/2000/svg">
<path d="M5.56641 10.5469H69.4336C69.9775 10.5469 70.4991 10.7629 70.8837 11.1475C71.2683 11.5321 71.4844 12.0538 71.4844 12.5977V50.3906H3.51562V12.5977C3.51562 12.0538 3.73169 11.5321 4.11629 11.1475C4.50088 10.7629 5.02251 10.5469 5.56641 10.5469Z" fill="#0296E5"/>
<path d="M35.1562 35.1562H39.8438V41.0156H35.1562V35.1562Z" fill="#FDC9A6"/>
<path d="M39.8438 35.1562V36.6035C39.1996 37.1808 38.365 37.5 37.5 37.5C36.635 37.5 35.8004 37.1808 35.1562 36.6035V35.1562H39.8438Z" fill="#FDC9A6"/>
<path d="M3.51562 50.3906H71.4844V55.3711C71.4844 55.915 71.2683 56.4366 70.8837 56.8212C70.4991 57.2058 69.9775 57.4219 69.4336 57.4219H5.56641C5.02251 57.4219 4.50088 57.2058 4.11629 56.8212C3.73169 56.4366 3.51562 55.915 3.51562 55.3711V50.3906Z" fill="#EAEAE8"/>
<path d="M25.1953 66.7969H49.8047C50.5817 66.7969 51.3269 67.1055 51.8763 67.655C52.4257 68.2044 52.7344 68.9496 52.7344 69.7266V71.4844H22.2656V69.7266C22.2656 68.9496 22.5743 68.2044 23.1237 67.655C23.6731 67.1055 24.4183 66.7969 25.1953 66.7969Z" fill="#EAEAE8"/>
<path d="M45.7031 57.4219H40.8155C41.0025 57.9521 41.0596 58.5194 40.982 59.0762C40.9044 59.633 40.6944 60.1631 40.3697 60.6219C40.0449 61.0808 39.6148 61.4552 39.1155 61.7135C38.6162 61.9718 38.0622 62.1066 37.5 62.1066C36.9378 62.1066 36.3838 61.9718 35.8845 61.7135C35.3852 61.4552 34.9551 61.0808 34.6303 60.6219C34.3056 60.1631 34.0956 59.633 34.018 59.0762C33.9404 58.5194 33.9975 57.9521 34.1845 57.4219H29.2969L26.9531 66.7969H48.0469L45.7031 57.4219Z" fill="#CBCBCB"/>
<path d="M43.3594 16.4062H31.6406L30.4688 10.5469H44.5312L43.3594 16.4062Z" fill="#EA9D2D"/>
<path d="M50.3906 15.2344H66.7969V33.9844H50.3906V15.2344Z" fill="#8FEAFF"/>
<path d="M58.5938 26.9531C59.837 26.9531 61.0292 27.447 61.9083 28.3261C62.7874 29.2051 63.2812 30.3974 63.2812 31.6406V33.9844H53.9062V31.6406C53.9062 30.3974 54.4001 29.2051 55.2792 28.3261C56.1583 27.447 57.3505 26.9531 58.5938 26.9531Z" fill="#0BAFEA"/>
<path d="M61.4063 27.8892C61.0791 28.3262 60.6545 28.6809 60.1663 28.9253C59.6781 29.1697 59.1397 29.2969 58.5938 29.2969C58.0478 29.2969 57.5094 29.1697 57.0212 28.9253C56.533 28.6809 56.1084 28.3262 55.7812 27.8892C56.593 27.2815 57.5798 26.9531 58.5938 26.9531C59.6078 26.9531 60.5945 27.2815 61.4063 27.8892Z" fill="#0BAFEA"/>
<path d="M55.3345 28.27C56.2092 27.4253 57.3777 26.9531 58.5938 26.9531C59.8098 26.9531 60.9783 27.4253 61.853 28.27H55.3345Z" fill="#0BAFEA"/>
<path d="M61.4063 27.8892C61.0791 28.3262 60.6545 28.6809 60.1663 28.9253C59.6781 29.1697 59.1397 29.2969 58.5938 29.2969C58.0478 29.2969 57.5094 29.1697 57.0212 28.9253C56.533 28.6809 56.1084 28.3262 55.7812 27.8892C56.593 27.2815 57.5798 26.9531 58.5938 26.9531C59.6078 26.9531 60.5945 27.2815 61.4063 27.8892Z" fill="#0A9ACD"/>
<path d="M44.5312 35.1562H30.4688L30.9139 29.2516C31.1145 27.6463 31.8946 26.1696 33.1074 25.0989C34.3202 24.0283 35.8822 23.4375 37.5 23.4375C39.1178 23.4375 40.6798 24.0283 41.8926 25.0989C43.1054 26.1696 43.8855 27.6463 44.0861 29.2516L44.5312 35.1562Z" fill="#683B0D"/>
<path d="M39.8438 35.1562V36.6035C39.1996 37.1808 38.365 37.5 37.5 37.5C36.635 37.5 35.8004 37.1808 35.1562 36.6035V35.1562H39.8438Z" fill="#F6BB92"/>
<path d="M39.8438 38.6719L43.6925 39.3133C44.5818 39.4615 45.3897 39.9204 45.9724 40.6083C46.5552 41.2962 46.875 42.1685 46.875 43.0701V50.3906H28.125V43.0701C28.125 42.1685 28.4448 41.2962 29.0276 40.6083C29.6103 39.9204 30.4182 39.4615 31.3075 39.3133L35.1562 38.6719C35.4135 39.0577 35.762 39.3741 36.1709 39.5929C36.5797 39.8117 37.0363 39.9262 37.5 39.9262C37.9637 39.9262 38.4203 39.8117 38.8291 39.5929C39.238 39.3741 39.5865 39.0577 39.8438 38.6719Z" fill="#FF6268"/>
<path d="M32.8125 50.3906H28.125V43.3594L32.8125 44.5312V50.3906Z" fill="#FDC9A6"/>
<path d="M46.875 50.3906H42.1875V44.5312L46.875 43.3594V50.3906Z" fill="#FDC9A6"/>
<path d="M37.5 36.3281C36.5676 36.3281 35.6734 35.9577 35.0141 35.2984C34.3548 34.6391 33.9844 33.7449 33.9844 32.8125V30.4688L36.3281 28.125L41.0156 30.4688V32.8125C41.0156 33.7449 40.6452 34.6391 39.9859 35.2984C39.3266 35.9577 38.4324 36.3281 37.5 36.3281Z" fill="#FDC9A6"/>
<path d="M58.5938 28.125C60.5354 28.125 62.1094 26.551 62.1094 24.6094C62.1094 22.6677 60.5354 21.0938 58.5938 21.0938C56.6521 21.0938 55.0781 22.6677 55.0781 24.6094C55.0781 26.551 56.6521 28.125 58.5938 28.125Z" fill="#0BAFEA"/>
<path d="M37.5 12.8906C40.0888 12.8906 42.1875 10.792 42.1875 8.20312C42.1875 5.61429 40.0888 3.51562 37.5 3.51562C34.9112 3.51562 32.8125 5.61429 32.8125 8.20312C32.8125 10.792 34.9112 12.8906 37.5 12.8906Z" fill="#FBB540"/>
<path d="M37.5 9.66797C38.309 9.66797 38.9648 9.01214 38.9648 8.20312C38.9648 7.39411 38.309 6.73828 37.5 6.73828C36.691 6.73828 36.0352 7.39411 36.0352 8.20312C36.0352 9.01214 36.691 9.66797 37.5 9.66797Z" fill="#D32B39"/>
</svg>
