<svg width="75" height="75" viewBox="0 0 75 75" fill="none" xmlns="http://www.w3.org/2000/svg">
<path d="M68.8477 12.8906H6.15234C4.69612 12.8906 3.51562 14.0711 3.51562 15.5273V57.1289C3.51562 58.5851 4.69612 59.7656 6.15234 59.7656H68.8477C70.3039 59.7656 71.4844 58.5851 71.4844 57.1289V15.5273C71.4844 14.0711 70.3039 12.8906 68.8477 12.8906Z" fill="#0296E5"/>
<path d="M8.20312 17.5781H66.7969V55.0781H8.20312V17.5781Z" fill="#EAEAE8"/>
<path d="M26.9531 66.7969H48.0469L49.2188 71.4844H25.7812L26.9531 66.7969Z" fill="#0296E5"/>
<path d="M18.75 35.1562C20.6916 35.1562 22.2656 33.5823 22.2656 31.6406C22.2656 29.699 20.6916 28.125 18.75 28.125C16.8084 28.125 15.2344 29.699 15.2344 31.6406C15.2344 33.5823 16.8084 35.1562 18.75 35.1562Z" fill="#FBB540"/>
<path d="M18.75 49.2188C20.6916 49.2188 22.2656 47.6448 22.2656 45.7031C22.2656 43.7615 20.6916 42.1875 18.75 42.1875C16.8084 42.1875 15.2344 43.7615 15.2344 45.7031C15.2344 47.6448 16.8084 49.2188 18.75 49.2188Z" fill="#FBB540"/>
<path d="M18.75 32.8124C18.6937 32.8125 18.6375 32.8084 18.5818 32.8003C18.4191 32.7767 18.2632 32.7191 18.1242 32.6313C17.9851 32.5435 17.8662 32.4274 17.775 32.2907L15.4312 28.775C15.2608 28.5164 15.1996 28.2009 15.2612 27.8973C15.3227 27.5938 15.5019 27.3269 15.7596 27.1551C16.0173 26.9833 16.3325 26.9205 16.6364 26.9804C16.9402 27.0403 17.208 27.2181 17.3812 27.4748L19.0016 29.9055L25.0309 24.881C25.2697 24.682 25.5777 24.5861 25.8873 24.6142C26.1968 24.6423 26.4825 24.7923 26.6815 25.031C26.8805 25.2698 26.9765 25.5779 26.9484 25.8874C26.9202 26.1969 26.7703 26.4826 26.5315 26.6816L19.5003 32.541C19.2896 32.7165 19.0241 32.8125 18.75 32.8124Z" fill="#FF6268"/>
<path d="M33.9844 33.9844H29.2969C28.9861 33.9844 28.688 33.8609 28.4682 33.6411C28.2485 33.4214 28.125 33.1233 28.125 32.8125C28.125 32.5017 28.2485 32.2036 28.4682 31.9839C28.688 31.7641 28.9861 31.6406 29.2969 31.6406H33.9844C34.2952 31.6406 34.5932 31.7641 34.813 31.9839C35.0328 32.2036 35.1562 32.5017 35.1562 32.8125C35.1562 33.1233 35.0328 33.4214 34.813 33.6411C34.5932 33.8609 34.2952 33.9844 33.9844 33.9844Z" fill="#CBCBCB"/>
<path d="M50.3906 33.9844H38.6719C38.3611 33.9844 38.063 33.8609 37.8432 33.6411C37.6235 33.4214 37.5 33.1233 37.5 32.8125C37.5 32.5017 37.6235 32.2036 37.8432 31.9839C38.063 31.7641 38.3611 31.6406 38.6719 31.6406H50.3906C50.7014 31.6406 50.9995 31.7641 51.2193 31.9839C51.439 32.2036 51.5625 32.5017 51.5625 32.8125C51.5625 33.1233 51.439 33.4214 51.2193 33.6411C50.9995 33.8609 50.7014 33.9844 50.3906 33.9844Z" fill="#CBCBCB"/>
<path d="M38.6719 38.6719H29.2969C28.9861 38.6719 28.688 38.5484 28.4682 38.3286C28.2485 38.1089 28.125 37.8108 28.125 37.5C28.125 37.1892 28.2485 36.8911 28.4682 36.6714C28.688 36.4516 28.9861 36.3281 29.2969 36.3281H38.6719C38.9827 36.3281 39.2807 36.4516 39.5005 36.6714C39.7203 36.8911 39.8438 37.1892 39.8438 37.5C39.8438 37.8108 39.7203 38.1089 39.5005 38.3286C39.2807 38.5484 38.9827 38.6719 38.6719 38.6719Z" fill="#CBCBCB"/>
<path d="M50.3906 45.7031H29.2969C28.9861 45.7031 28.688 45.5797 28.4682 45.3599C28.2485 45.1401 28.125 44.8421 28.125 44.5312C28.125 44.2204 28.2485 43.9224 28.4682 43.7026C28.688 43.4828 28.9861 43.3594 29.2969 43.3594H50.3906C50.7014 43.3594 50.9995 43.4828 51.2193 43.7026C51.439 43.9224 51.5625 44.2204 51.5625 44.5312C51.5625 44.8421 51.439 45.1401 51.2193 45.3599C50.9995 45.5797 50.7014 45.7031 50.3906 45.7031Z" fill="#CBCBCB"/>
<path d="M33.9844 50.3906H29.2969C28.9861 50.3906 28.688 50.2672 28.4682 50.0474C28.2485 49.8276 28.125 49.5296 28.125 49.2188C28.125 48.9079 28.2485 48.6099 28.4682 48.3901C28.688 48.1703 28.9861 48.0469 29.2969 48.0469H33.9844C34.2952 48.0469 34.5932 48.1703 34.813 48.3901C35.0328 48.6099 35.1562 48.9079 35.1562 49.2188C35.1562 49.5296 35.0328 49.8276 34.813 50.0474C34.5932 50.2672 34.2952 50.3906 33.9844 50.3906Z" fill="#CBCBCB"/>
<path d="M50.3906 50.3906H39.8438C39.5329 50.3906 39.2349 50.2672 39.0151 50.0474C38.7953 49.8276 38.6719 49.5296 38.6719 49.2188C38.6719 48.9079 38.7953 48.6099 39.0151 48.3901C39.2349 48.1703 39.5329 48.0469 39.8438 48.0469H50.3906C50.7014 48.0469 50.9995 48.1703 51.2193 48.3901C51.439 48.6099 51.5625 48.9079 51.5625 49.2188C51.5625 49.5296 51.439 49.8276 51.2193 50.0474C50.9995 50.2672 50.7014 50.3906 50.3906 50.3906Z" fill="#CBCBCB"/>
<path d="M46.875 38.6719H43.3594C43.0486 38.6719 42.7505 38.5484 42.5307 38.3286C42.311 38.1089 42.1875 37.8108 42.1875 37.5C42.1875 37.1892 42.311 36.8911 42.5307 36.6714C42.7505 36.4516 43.0486 36.3281 43.3594 36.3281H46.875C47.1858 36.3281 47.4839 36.4516 47.7036 36.6714C47.9234 36.8911 48.0469 37.1892 48.0469 37.5C48.0469 37.8108 47.9234 38.1089 47.7036 38.3286C47.4839 38.5484 47.1858 38.6719 46.875 38.6719Z" fill="#CBCBCB"/>
<path d="M8.20312 17.5781H66.7969V22.2656H8.20312V17.5781Z" fill="#FF6268"/>
<path d="M39.8438 59.7656V60.9375C39.8438 61.5591 39.5968 62.1552 39.1573 62.5948C38.7177 63.0343 38.1216 63.2812 37.5 63.2812C36.8784 63.2812 36.2823 63.0343 35.8427 62.5948C35.4032 62.1552 35.1562 61.5591 35.1562 60.9375V59.7656H31.6406V66.7969H43.3594V59.7656H39.8438Z" fill="#026CA2"/>
<path d="M37.5 8.20312C37.1892 8.20312 36.8911 8.07966 36.6714 7.85989C36.4516 7.64012 36.3281 7.34205 36.3281 7.03125V4.6875C36.3281 4.3767 36.4516 4.07863 36.6714 3.85886C36.8911 3.63909 37.1892 3.51563 37.5 3.51562C37.8108 3.51563 38.1089 3.63909 38.3286 3.85886C38.5484 4.07863 38.6719 4.3767 38.6719 4.6875V7.03125C38.6719 7.34205 38.5484 7.64012 38.3286 7.85989C38.1089 8.07966 37.8108 8.20312 37.5 8.20312Z" fill="#026CA2"/>
<path d="M39.8438 4.6875H35.1562C34.8454 4.6875 34.5474 4.56403 34.3276 4.34427C34.1078 4.1245 33.9844 3.82643 33.9844 3.51562C33.9844 3.20482 34.1078 2.90675 34.3276 2.68698C34.5474 2.46721 34.8454 2.34375 35.1562 2.34375H39.8438C40.1546 2.34375 40.4526 2.46721 40.6724 2.68698C40.8922 2.90675 41.0156 3.20482 41.0156 3.51562C41.0156 3.82643 40.8922 4.1245 40.6724 4.34427C40.4526 4.56403 40.1546 4.6875 39.8438 4.6875Z" fill="#0296E5"/>
<path d="M37.5 25.7812C42.6777 25.7812 46.875 21.5839 46.875 16.4062C46.875 11.2286 42.6777 7.03125 37.5 7.03125C32.3223 7.03125 28.125 11.2286 28.125 16.4062C28.125 21.5839 32.3223 25.7812 37.5 25.7812Z" fill="#8FEAFF"/>
<path d="M39.8429 18.75C39.6612 18.7499 39.482 18.7074 39.3196 18.6259L36.9759 17.4541C36.7813 17.3567 36.6176 17.2072 36.5032 17.0221C36.3888 16.8371 36.3282 16.6238 36.3281 16.4062V11.7188C36.3281 11.4079 36.4516 11.1099 36.6714 10.8901C36.8911 10.6703 37.1892 10.5469 37.5 10.5469C37.8108 10.5469 38.1089 10.6703 38.3286 10.8901C38.5484 11.1099 38.6719 11.4079 38.6719 11.7188V15.682L40.3679 16.53C40.604 16.6481 40.7934 16.8425 40.9052 17.0817C41.0171 17.3209 41.0449 17.5909 40.9841 17.8478C40.9233 18.1048 40.7776 18.3337 40.5704 18.4974C40.3633 18.6612 40.1069 18.7502 39.8429 18.75Z" fill="#0296E5"/>
<path d="M37.5 23.4376C36.0243 23.4376 34.5859 22.9733 33.3888 22.1104C32.1916 21.2475 31.2962 20.0298 30.8296 18.6298C30.3629 17.2298 30.3486 15.7185 30.7886 14.3098C31.2286 12.9012 32.1007 11.6668 33.2812 10.7813C33.4039 10.6845 33.5448 10.6132 33.6954 10.5716C33.8461 10.53 34.0036 10.5189 34.1586 10.5391C34.3136 10.5593 34.463 10.6103 34.598 10.689C34.733 10.7678 34.8509 10.8728 34.9447 10.9978C35.0385 11.1229 35.1063 11.2654 35.1442 11.417C35.1821 11.5687 35.1893 11.7264 35.1654 11.8808C35.1414 12.0353 35.0868 12.1834 35.0047 12.3164C34.9226 12.4495 34.8148 12.5647 34.6875 12.6555C33.7681 13.3452 33.134 14.3486 32.9058 15.4751C32.6775 16.6016 32.871 17.7727 33.4494 18.7659C34.0278 19.7591 34.9509 20.5053 36.0434 20.8626C37.1358 21.22 38.3214 21.1637 39.375 20.7043C39.5167 20.6383 39.6701 20.6013 39.8263 20.5955C39.9825 20.5896 40.1383 20.6151 40.2845 20.6704C40.4307 20.7257 40.5644 20.8096 40.6777 20.9174C40.7909 21.0251 40.8815 21.1544 40.944 21.2976C41.0066 21.4409 41.0398 21.5952 41.0418 21.7515C41.0438 21.9078 41.0146 22.0629 40.9557 22.2077C40.8969 22.3525 40.8096 22.4841 40.6992 22.5947C40.5887 22.7053 40.4572 22.7926 40.3125 22.8517C39.4257 23.2398 38.468 23.4393 37.5 23.4376Z" fill="#43DCFE"/>
</svg>
