<svg width="75" height="75" viewBox="0 0 75 75" fill="none" xmlns="http://www.w3.org/2000/svg">
<path d="M17.5781 67.9688H10.8398C10.1405 67.9688 9.46988 67.691 8.9754 67.1965C8.48092 66.702 8.20312 66.0313 8.20312 65.332V49.5117C8.20313 48.8124 8.48092 48.1418 8.9754 47.6473C9.46988 47.1528 10.1405 46.875 10.8398 46.875H17.5781V67.9688Z" fill="#0296E5"/>
<path d="M8.20312 64.4531L8.17588 64.4462C6.84477 64.1135 5.66309 63.3453 4.81869 62.2638C3.97429 61.1824 3.51563 59.8497 3.51562 58.4776V56.3662C3.51563 54.9941 3.97429 53.6614 4.81869 52.5799C5.66309 51.4984 6.84477 50.7303 8.17588 50.3975L8.20312 50.3906V64.4531Z" fill="#026CA2"/>
<path d="M12.8906 52.7344C12.5798 52.7344 12.2818 52.6109 12.062 52.3911C11.8422 52.1714 11.7188 51.8733 11.7188 51.5625V46.875C11.7188 46.5642 11.8422 46.2661 12.062 46.0464C12.2818 45.8266 12.5798 45.7031 12.8906 45.7031C13.2014 45.7031 13.4995 45.8266 13.7193 46.0464C13.939 46.2661 14.0625 46.5642 14.0625 46.875V51.5625C14.0625 51.8733 13.939 52.1714 13.7193 52.3911C13.4995 52.6109 13.2014 52.7344 12.8906 52.7344Z" fill="#0BAFEA"/>
<path d="M11.7188 67.9688V56.25C11.7188 55.9392 11.8422 55.6411 12.062 55.4214C12.2818 55.2016 12.5798 55.0781 12.8906 55.0781C13.2014 55.0781 13.4995 55.2016 13.7193 55.4214C13.939 55.6411 14.0625 55.9392 14.0625 56.25V67.9688H11.7188Z" fill="#0BAFEA"/>
<path d="M20.3222 65.4248L17.5781 66.7969V48.0469L20.3222 49.419C20.9062 49.711 21.3973 50.1598 21.7406 50.7152C22.0838 51.2705 22.2656 51.9105 22.2656 52.5634V62.2803C22.2656 62.9332 22.0838 63.5732 21.7406 64.1286C21.3973 64.684 20.9062 65.1328 20.3222 65.4248Z" fill="#026CA2"/>
<path d="M10.5469 39.8438H15.2344V46.875H10.5469V39.8438Z" fill="#026CA2"/>
<path d="M57.4219 67.9688H64.1602C64.8595 67.9688 65.5301 67.691 66.0246 67.1965C66.5191 66.702 66.7969 66.0313 66.7969 65.332V49.5117C66.7969 48.8124 66.5191 48.1418 66.0246 47.6473C65.5301 47.1528 64.8595 46.875 64.1602 46.875H57.4219V67.9688Z" fill="#0296E5"/>
<path d="M66.7969 64.4531L66.8241 64.4462C68.1552 64.1135 69.3369 63.3453 70.1813 62.2638C71.0257 61.1824 71.4844 59.8497 71.4844 58.4776V56.3662C71.4844 54.9941 71.0257 53.6614 70.1813 52.5799C69.3369 51.4984 68.1552 50.7303 66.8241 50.3975L66.7969 50.3906V64.4531Z" fill="#026CA2"/>
<path d="M62.1094 52.7344C61.7986 52.7344 61.5005 52.6109 61.2807 52.3911C61.061 52.1714 60.9375 51.8733 60.9375 51.5625V48.0469C60.9375 47.7361 61.061 47.438 61.2807 47.2182C61.5005 46.9985 61.7986 46.875 62.1094 46.875C62.4202 46.875 62.7182 46.9985 62.938 47.2182C63.1578 47.438 63.2812 47.7361 63.2812 48.0469V51.5625C63.2812 51.8733 63.1578 52.1714 62.938 52.3911C62.7182 52.6109 62.4202 52.7344 62.1094 52.7344Z" fill="#0BAFEA"/>
<path d="M60.9375 67.9688V56.25C60.9375 55.9392 61.061 55.6411 61.2807 55.4214C61.5005 55.2016 61.7986 55.0781 62.1094 55.0781C62.4202 55.0781 62.7182 55.2016 62.938 55.4214C63.1578 55.6411 63.2812 55.9392 63.2812 56.25V67.9688H60.9375Z" fill="#0BAFEA"/>
<path d="M54.6778 65.4248L57.4219 66.7969V48.0469L54.6778 49.419C54.0938 49.711 53.6027 50.1598 53.2594 50.7152C52.9162 51.2705 52.7344 51.9105 52.7344 52.5634V62.2803C52.7344 62.9332 52.9162 63.5732 53.2594 64.1286C53.6027 64.684 54.0938 65.1328 54.6778 65.4248Z" fill="#026CA2"/>
<path d="M37.5 7.03125C21.9669 7.03125 9.375 19.6232 9.375 35.1562V39.8438H16.4062V35.1562C16.4062 29.5618 18.6286 24.1966 22.5845 20.2407C26.5403 16.2849 31.9056 14.0625 37.5 14.0625C43.0944 14.0625 48.4597 16.2849 52.4155 20.2407C56.3714 24.1966 58.5938 29.5618 58.5938 35.1562V39.8438H65.625V35.1562C65.625 19.6232 53.0331 7.03125 37.5 7.03125Z" fill="#0296E5"/>
<path d="M59.7656 39.8438H64.4531V46.875H59.7656V39.8438Z" fill="#026CA2"/>
<path d="M37.5 66.7971C37.2494 66.7971 37.0055 66.7167 36.804 66.5678C36.6025 66.4189 36.454 66.2094 36.3803 65.9699L32.6682 53.9065L31.5568 56.6852C31.4699 56.9027 31.3198 57.0892 31.1258 57.2205C30.9319 57.3519 30.703 57.4221 30.4688 57.4221H26.9531C26.6423 57.4221 26.3443 57.2987 26.1245 57.0789C25.9047 56.8591 25.7812 56.561 25.7812 56.2502C25.7812 55.9394 25.9047 55.6414 26.1245 55.4216C26.3443 55.2018 26.6423 55.0784 26.9531 55.0784H29.6754L31.7244 49.9557C31.8144 49.7306 31.972 49.539 32.1755 49.4072C32.379 49.2755 32.6183 49.21 32.8605 49.22C33.1027 49.2299 33.3358 49.3147 33.5278 49.4627C33.7198 49.6106 33.8612 49.8145 33.9325 50.0462L37.317 61.0461L41.0435 44.2773C41.0997 44.0241 41.2383 43.7967 41.4376 43.6307C41.6369 43.4648 41.8856 43.3696 42.1448 43.3602C42.404 43.3507 42.659 43.4275 42.8699 43.5785C43.0807 43.7296 43.2355 43.9463 43.31 44.1947L46.575 55.0784H48.0469C48.3577 55.0784 48.6557 55.2018 48.8755 55.4216C49.0953 55.6414 49.2188 55.9394 49.2188 56.2502C49.2188 56.561 49.0953 56.8591 48.8755 57.0789C48.6557 57.2987 48.3577 57.4221 48.0469 57.4221H45.7031C45.4511 57.4221 45.2058 57.3409 45.0036 57.1905C44.8014 57.0401 44.6531 56.8285 44.5806 56.5872L42.3565 49.1733L38.644 65.8794C38.588 66.1319 38.4499 66.3587 38.2514 66.5246C38.0529 66.6904 37.8052 66.7859 37.5467 66.7962C37.5309 66.7968 37.5153 66.7971 37.5 66.7971Z" fill="#02A437"/>
<path d="M28.125 35.1562C27.8142 35.1562 27.5161 35.0328 27.2964 34.813C27.0766 34.5932 26.9531 34.2952 26.9531 33.9844V30.4688C26.9531 30.1579 27.0766 29.8599 27.2964 29.6401C27.5161 29.4203 27.8142 29.2969 28.125 29.2969C28.4358 29.2969 28.7339 29.4203 28.9536 29.6401C29.1734 29.8599 29.2969 30.1579 29.2969 30.4688V33.9844C29.2969 34.2952 29.1734 34.5932 28.9536 34.813C28.7339 35.0328 28.4358 35.1562 28.125 35.1562Z" fill="#FBB540"/>
<path d="M32.8125 38.6719C32.5017 38.6719 32.2036 38.5484 31.9839 38.3286C31.7641 38.1089 31.6406 37.8108 31.6406 37.5V28.125C31.6406 27.8142 31.7641 27.5161 31.9839 27.2964C32.2036 27.0766 32.5017 26.9531 32.8125 26.9531C33.1233 26.9531 33.4214 27.0766 33.6411 27.2964C33.8609 27.5161 33.9844 27.8142 33.9844 28.125V37.5C33.9844 37.8108 33.8609 38.1089 33.6411 38.3286C33.4214 38.5484 33.1233 38.6719 32.8125 38.6719Z" fill="#EA9D2D"/>
<path d="M37.5 41.0156C37.1892 41.0156 36.8911 40.8922 36.6714 40.6724C36.4516 40.4526 36.3281 40.1546 36.3281 39.8438V25.7812C36.3281 25.4704 36.4516 25.1724 36.6714 24.9526C36.8911 24.7328 37.1892 24.6094 37.5 24.6094C37.8108 24.6094 38.1089 24.7328 38.3286 24.9526C38.5484 25.1724 38.6719 25.4704 38.6719 25.7812V39.8438C38.6719 40.1546 38.5484 40.4526 38.3286 40.6724C38.1089 40.8922 37.8108 41.0156 37.5 41.0156Z" fill="#FBB540"/>
<path d="M42.1875 38.6719C41.8767 38.6719 41.5786 38.5484 41.3589 38.3286C41.1391 38.1089 41.0156 37.8108 41.0156 37.5V28.125C41.0156 27.8142 41.1391 27.5161 41.3589 27.2964C41.5786 27.0766 41.8767 26.9531 42.1875 26.9531C42.4983 26.9531 42.7964 27.0766 43.0161 27.2964C43.2359 27.5161 43.3594 27.8142 43.3594 28.125V37.5C43.3594 37.8108 43.2359 38.1089 43.0161 38.3286C42.7964 38.5484 42.4983 38.6719 42.1875 38.6719Z" fill="#EA9D2D"/>
<path d="M46.875 35.1562C46.5642 35.1562 46.2661 35.0328 46.0464 34.813C45.8266 34.5932 45.7031 34.2952 45.7031 33.9844V30.4688C45.7031 30.1579 45.8266 29.8599 46.0464 29.6401C46.2661 29.4203 46.5642 29.2969 46.875 29.2969C47.1858 29.2969 47.4839 29.4203 47.7036 29.6401C47.9234 29.8599 48.0469 30.1579 48.0469 30.4688V33.9844C48.0469 34.2952 47.9234 34.5932 47.7036 34.813C47.4839 35.0328 47.1858 35.1562 46.875 35.1562Z" fill="#FBB540"/>
<path d="M51.5625 33.9844C51.2517 33.9844 50.9536 33.8609 50.7339 33.6411C50.5141 33.4214 50.3906 33.1233 50.3906 32.8125V31.6406C50.3906 31.3298 50.5141 31.0318 50.7339 30.812C50.9536 30.5922 51.2517 30.4688 51.5625 30.4688C51.8733 30.4688 52.1714 30.5922 52.3911 30.812C52.6109 31.0318 52.7344 31.3298 52.7344 31.6406V32.8125C52.7344 33.1233 52.6109 33.4214 52.3911 33.6411C52.1714 33.8609 51.8733 33.9844 51.5625 33.9844Z" fill="#EA9D2D"/>
<path d="M23.4375 33.9844C23.1267 33.9844 22.8286 33.8609 22.6089 33.6411C22.3891 33.4214 22.2656 33.1233 22.2656 32.8125V31.6406C22.2656 31.3298 22.3891 31.0318 22.6089 30.812C22.8286 30.5922 23.1267 30.4688 23.4375 30.4688C23.7483 30.4688 24.0464 30.5922 24.2661 30.812C24.4859 31.0318 24.6094 31.3298 24.6094 31.6406V32.8125C24.6094 33.1233 24.4859 33.4214 24.2661 33.6411C24.0464 33.8609 23.7483 33.9844 23.4375 33.9844Z" fill="#EA9D2D"/>
</svg>
